<svg width="527" height="50" xmlns="http://www.w3.org/2000/svg">

 <g>
  <title>background</title>
  <rect fill="none" id="canvas_background" height="52" width="529" y="-1" x="-1"/>
 </g>
 <g>
  <title>Layer 1</title>
  <rect x="-27.5" y="0" id="svg_1" height="94.361" width="612"/>
  <g id="svg_2">
   <path id="svg_3" d="m47.045,32.697c-2.612,12.132 -12.712,17.298 -22.115,17.298c-12.886,0 -23.334,-11.086 -23.334,-24.785c0,-13.756 9.868,-24.843 23.334,-24.843c8.417,0 14.279,3.134 18.458,8.184l-7.14,7.836c-2.786,-4.47 -6.442,-6.153 -10.68,-6.153c-6.733,0 -12.189,6.675 -12.189,14.975c0,8.126 5.456,14.744 12.189,14.744c5.224,0 10.39,-3.367 10.39,-9.229l-11.028,0l0,-8.417l22.115,0l0,10.39z" fill="#FFFFFF"/>
   <path id="svg_4" d="m76.763,0.367c13.292,0 24.089,10.796 24.089,24.785c0,13.988 -10.332,24.843 -24.089,24.843c-14.162,0 -24.146,-10.854 -24.146,-24.843c-0.001,-13.989 10.97,-24.785 24.146,-24.785zm0,39.064c8.707,0 12.306,-7.14 12.306,-14.279c0,-7.14 -3.831,-14.279 -12.306,-14.279c-8.416,0 -12.363,7.14 -12.363,14.279c-0.001,7.139 3.424,14.279 12.363,14.279z" fill="#FFFFFF"/>
   <path id="svg_5" d="m125.694,1.237c8.881,0 15.614,4.818 15.614,14.221c0,7.197 -3.947,12.015 -9.81,13.873l16.484,19.793l-13.872,0l-14.627,-18.922l0,18.922l-10.912,0l0,-47.887l17.123,0zm-4.933,21.244c4.121,0 9.055,-0.29 9.055,-6.269s-4.934,-6.269 -9.055,-6.269l-1.277,0l0,12.538l1.277,0z" fill="#FFFFFF"/>
   <path id="svg_6" d="m163.945,49.124l-10.913,0l0,-47.887l10.913,0l0,47.887z" fill="#FFFFFF"/>
   <path id="svg_7" d="m184.725,39.547l16.484,0l0,9.577l-27.396,0l0,-47.887l10.912,0l0,38.31z" fill="#FFFFFF"/>
   <path id="svg_8" d="m220.422,39.547l16.484,0l0,9.577l-27.397,0l0,-47.887l10.913,0l0,38.31z" fill="#FFFFFF"/>
   <path id="svg_9" d="m289.727,49.124l-11.725,0l-3.541,-9.577l-18.227,0l-3.541,9.577l-11.725,0l19.329,-47.887l10.099,0l19.331,47.887zm-24.322,-33.085l-0.116,0l-5.34,13.931l10.797,0l-5.341,-13.931z" fill="#FFFFFF"/>
   <path id="svg_10" d="m324.145,49.124l-10.912,0l0,-47.887l10.912,0l0,19.097l15.441,0l0,-19.097l10.912,0l0,47.887l-10.912,0l0,-19.213l-15.441,0l0,19.213z" fill="#FFFFFF"/>
   <path id="svg_11" d="m382.363,0.367c13.293,0 24.09,10.796 24.09,24.785c0,13.988 -10.332,24.843 -24.09,24.843c-14.162,0 -24.146,-10.854 -24.146,-24.843c0,-13.989 10.971,-24.785 24.146,-24.785zm0,39.064c8.707,0 12.307,-7.14 12.307,-14.279c0,-7.14 -3.832,-14.279 -12.307,-14.279c-8.416,0 -12.363,7.14 -12.363,14.279c0,7.139 3.426,14.279 12.363,14.279z" fill="#FFFFFF"/>
   <path id="svg_12" d="m450.973,32.117c0,11.841 -6.5,17.877 -18.689,17.877s-18.691,-6.037 -18.691,-17.877l0,-30.88l10.912,0l0,27.687c0,8.01 2.438,10.332 7.779,10.332c5.34,0 7.777,-2.322 7.777,-10.332l0,-27.687l10.912,0l0,30.88z" fill="#FFFFFF"/>
   <path id="svg_13" d="m491.604,4.894l-4.412,8.707c0,0 -4.76,-3.309 -9.693,-3.309c-3.715,0 -5.688,1.683 -5.688,4.295c0,2.67 4.527,4.586 9.982,6.907c5.342,2.264 11.203,6.792 11.203,13.06c0,11.435 -8.707,15.44 -18.051,15.44c-11.203,0 -17.994,-6.327 -17.994,-6.327l5.455,-9.171c0,0 6.385,5.398 11.727,5.398c2.379,0 6.906,-0.232 6.906,-4.702c0,-3.483 -5.107,-5.05 -10.797,-7.894c-5.746,-2.844 -9.111,-7.313 -9.111,-12.306c0,-8.938 7.893,-14.627 15.613,-14.627c8.707,0.002 14.86,4.529 14.86,4.529z" fill="#FFFFFF"/>
   <path id="svg_14" d="m528.404,10.815l-16.486,0l0,9.519l15.789,0l0,9.577l-15.789,0l0,9.636l16.486,0l0,9.577l-27.398,0l0,-47.887l27.398,0l0,9.578z" fill="#FFFFFF"/>
  </g>
 </g>
</svg>